<?xml version="1.0" standalone="no"?>
<!DOCTYPE svg PUBLIC "-//W3C//DTD SVG 20010904//EN"
 "http://www.w3.org/TR/2001/REC-SVG-20010904/DTD/svg10.dtd">
<svg version="1.0" xmlns="http://www.w3.org/2000/svg"
 width="1057.000000pt" height="1057.000000pt" viewBox="0 0 1057.000000 1057.000000"
 preserveAspectRatio="xMidYMid meet">
<metadata>
Created by potrace 1.14, written by Peter Selinger 2001-2017
</metadata>
<g transform="translate(0.000000,1057.000000) scale(0.100000,-0.100000)"
fill="#000000" stroke="none">
<path d="M4315 10559 c-22 -4 -58 -11 -79 -14 -205 -30 -587 -139 -866 -247
-360 -140 -668 -309 -1067 -583 -80 -56 -308 -243 -413 -340 -144 -133 -364
-366 -466 -494 -10 -13 -31 -38 -45 -55 -91 -108 -305 -426 -404 -601 -61
-107 -178 -340 -233 -465 -18 -42 -79 -197 -122 -315 -47 -127 -148 -496 -164
-596 -3 -20 -8 -42 -10 -50 -3 -8 -8 -32 -11 -54 -3 -22 -10 -65 -15 -95 -5
-30 -12 -73 -14 -95 -3 -22 -7 -56 -10 -75 -11 -76 -22 -200 -31 -340 -6 -82
-5 -403 0 -490 8 -136 15 -226 20 -265 16 -132 22 -177 35 -255 5 -30 12 -71
15 -90 9 -58 54 -260 76 -340 11 -41 22 -86 25 -100 9 -45 111 -344 152 -445
148 -372 319 -686 556 -1020 39 -55 73 -102 76 -105 3 -3 19 -23 36 -45 33
-45 37 -50 161 -195 136 -158 442 -460 525 -519 12 -8 29 -22 38 -30 25 -24
53 -46 149 -118 l86 -65 -150 6 c-171 7 -294 15 -313 21 -7 3 -17 -6 -22 -19
-6 -17 -15 -23 -32 -21 -13 1 -72 6 -133 9 -60 4 -126 9 -146 11 l-37 3 -1
-231 c-1 -127 -3 -232 -5 -234 -1 -2 -78 -23 -171 -48 -288 -77 -545 -172
-816 -303 l-139 -67 47 -54 c27 -30 94 -107 150 -170 57 -64 103 -121 103
-127 0 -5 -30 -91 -66 -190 -62 -171 -102 -281 -193 -533 l-41 -113 27 18
c176 115 530 303 728 386 292 122 651 230 940 282 17 3 41 8 55 11 14 3 41 8
60 11 19 2 58 9 85 14 51 9 94 16 175 25 25 3 56 7 70 10 14 3 52 7 85 10 32
3 71 7 85 9 14 3 66 7 115 11 50 3 106 8 125 10 59 6 297 17 445 21 77 1 143
3 148 3 4 1 7 53 7 116 0 84 3 117 13 120 6 2 47 6 89 9 76 6 92 8 213 22 33
4 71 8 85 9 43 3 160 16 178 20 9 1 46 6 82 10 36 3 76 8 90 10 14 2 48 6 75
10 28 3 66 8 85 10 19 3 60 8 90 13 30 4 111 5 180 2 69 -2 258 -4 420 -4 298
-1 406 5 570 29 14 2 50 7 80 10 30 4 64 9 75 11 10 2 35 6 55 9 20 3 47 7 60
10 14 3 41 8 60 11 19 4 73 15 120 26 47 11 92 21 100 23 43 9 185 48 254 70
74 23 99 26 328 31 l248 6 0 -291 c0 -270 1 -291 18 -292 9 0 76 -2 147 -4
174 -4 427 -17 555 -30 30 -3 82 -7 114 -10 33 -3 71 -7 85 -10 14 -2 53 -7
86 -10 68 -7 107 -12 185 -25 30 -5 71 -12 90 -15 148 -24 278 -50 405 -82 55
-14 108 -26 118 -28 10 -2 57 -16 105 -30 47 -15 93 -28 102 -30 33 -6 282
-100 405 -152 135 -57 428 -204 456 -229 8 -8 19 -14 23 -14 4 0 60 -32 124
-71 64 -39 120 -73 124 -76 9 -5 8 -2 -168 482 -68 187 -124 344 -124 349 0 8
29 43 145 175 17 19 52 59 79 88 89 97 97 81 -87 166 -188 87 -342 151 -477
197 -143 48 -195 64 -452 131 l-37 9 1 231 c0 127 -4 235 -8 239 -36 36 -605
330 -638 330 -2 0 -24 9 -49 20 l-46 20 121 123 c267 270 512 585 708 912 150
251 343 676 434 962 58 182 125 449 152 608 2 17 7 37 9 45 2 8 6 35 9 60 3
25 8 54 10 65 2 11 7 49 11 85 4 36 9 79 11 95 26 199 26 836 0 995 -2 14 -7
51 -11 84 -4 32 -8 68 -10 80 -2 11 -11 66 -19 121 -23 142 -23 142 -67 325
-124 517 -340 1018 -627 1460 -66 102 -167 247 -182 260 -3 3 -14 18 -24 34
-46 72 -252 309 -401 460 -638 650 -1481 1114 -2370 1302 -60 13 -128 26 -150
29 -22 4 -58 10 -80 15 -50 12 -1486 11 -1540 -1z"/>
</g>
</svg>
